<?xml version="1.0" encoding="utf-8"?>
<!-- Generator: Adobe Illustrator 19.2.1, SVG Export Plug-In . SVG Version: 6.00 Build 0)  -->
<svg version="1.1" id="Layer_1" xmlns="http://www.w3.org/2000/svg" xmlns:xlink="http://www.w3.org/1999/xlink" x="0px" y="0px"
	 width="512px" height="512px" viewBox="0 0 512 512" style="enable-background:new 0 0 512 512;" xml:space="preserve">
<style type="text/css">
	.st0{fill:#ECE7EA;}
	.st1{fill:#1B4145;}
	.st2{fill:#6FC5D6;}
	.st3{fill:#F14742;}
	.st4{fill:#8B7E7F;}
</style>
<polygon class="st0" points="512,74 512,494.9 0,494.9 0,74 256,51.2 "/>
<rect y="17.1" class="st1" width="512" height="56.9"/>
<circle class="st2" cx="435.2" cy="45.5" r="8.5"/>
<circle class="st3" cx="475" cy="45.5" r="8.5"/>
<circle class="st2" cx="395.4" cy="45.5" r="8.5"/>
<g>
	<path class="st4" d="M443.7,202H68.3c-4.7,0-8.5-3.8-8.5-8.5s3.8-8.5,8.5-8.5h375.5c4.7,0,8.5,3.8,8.5,8.5S448.4,202,443.7,202z"/>
	<path class="st4" d="M443.7,156.4H68.3c-4.7,0-8.5-3.8-8.5-8.5s3.8-8.5,8.5-8.5h375.5c4.7,0,8.5,3.8,8.5,8.5
		S448.4,156.4,443.7,156.4z"/>
	<path class="st4" d="M233.2,293h-165c-4.7,0-8.5-3.8-8.5-8.5s3.8-8.5,8.5-8.5h165c4.7,0,8.5,3.8,8.5,8.5S238,293,233.2,293z"/>
	<path class="st4" d="M233.2,247.5h-165c-4.7,0-8.5-3.8-8.5-8.5c0-4.7,3.8-8.5,8.5-8.5h165c4.7,0,8.5,3.8,8.5,8.5
		S238,247.5,233.2,247.5z"/>
	<path class="st4" d="M233.2,338.5h-165c-4.7,0-8.5-3.8-8.5-8.5s3.8-8.5,8.5-8.5h165c4.7,0,8.5,3.8,8.5,8.5S238,338.5,233.2,338.5z"
		/>
	<path class="st4" d="M233.2,384h-165c-4.7,0-8.5-3.8-8.5-8.5s3.8-8.5,8.5-8.5h165c4.7,0,8.5,3.8,8.5,8.5S238,384,233.2,384z"/>
</g>
<rect x="278.8" y="238.9" class="st3" width="165" height="182"/>
<path class="st4" d="M233.2,429.5h-165c-4.7,0-8.5-3.8-8.5-8.5s3.8-8.5,8.5-8.5h165c4.7,0,8.5,3.8,8.5,8.5S238,429.5,233.2,429.5z"
	/>
</svg>
