<?xml version="1.0" encoding="utf-8"?>
<!-- Generator: Adobe Illustrator 19.2.1, SVG Export Plug-In . SVG Version: 6.00 Build 0)  -->
<svg version="1.1" id="Layer_1" xmlns="http://www.w3.org/2000/svg" xmlns:xlink="http://www.w3.org/1999/xlink" x="0px" y="0px"
	 width="512px" height="512px" viewBox="0 0 512 512" style="enable-background:new 0 0 512 512;" xml:space="preserve">
<style type="text/css">
	.st0{fill:#424A60;}
	.st1{fill:#EBBA16;}
	.st2{fill:#38454F;}
</style>
<g>
	<path class="st0" d="M354.8,242.5c-9.9,0-18-8-18-18V113.2c0-42.6-38.3-77.3-85.3-77.3s-85.3,34.7-85.3,77.3v28.9c0,9.9-8,18-18,18
		s-18-8-18-18v-28.9C130.2,50.8,184.6,0,251.5,0c66.9,0,121.3,50.8,121.3,113.2v111.4C372.8,234.5,364.7,242.5,354.8,242.5z"/>
	<rect x="67.4" y="224.6" class="st1" width="377.3" height="287.4"/>
	<path class="st0" d="M256,404.2L256,404.2c-14.8,0-26.9-12.1-26.9-26.9v-53.9c0-14.8,12.1-26.9,26.9-26.9l0,0
		c14.8,0,26.9,12.1,26.9,26.9v53.9C282.9,392.1,270.8,404.2,256,404.2z"/>
	<rect x="67.4" y="458.1" class="st2" width="377.3" height="53.9"/>
</g>
</svg>
